<mxfile host="app.diagrams.net" agent="Mozilla/5.0 (Macintosh; Intel Mac OS X 10_15_7) AppleWebKit/605.1.15 (KHTML, like Gecko) Version/17.6 Safari/605.1.15" version="24.7.7">
  <diagram name="Page-1" id="xzta7Wypecy5D5EAMfzw">
    <mxGraphModel dx="954" dy="544" grid="1" gridSize="10" guides="1" tooltips="1" connect="1" arrows="1" fold="1" page="1" pageScale="1" pageWidth="827" pageHeight="1169" math="0" shadow="0">
      <root>
        <mxCell id="0" />
        <mxCell id="1" parent="0" />
        <mxCell id="wkIBhuOAM_PfQtG9dyKs-8" value="" style="group" vertex="1" connectable="0" parent="1">
          <mxGeometry x="200" y="180" width="350" height="190" as="geometry" />
        </mxCell>
        <mxCell id="wkIBhuOAM_PfQtG9dyKs-44" style="edgeStyle=orthogonalEdgeStyle;rounded=0;orthogonalLoop=1;jettySize=auto;html=1;exitX=0.75;exitY=1;exitDx=0;exitDy=0;dashed=1;" edge="1" parent="wkIBhuOAM_PfQtG9dyKs-8" source="wkIBhuOAM_PfQtG9dyKs-6">
          <mxGeometry relative="1" as="geometry">
            <mxPoint x="310" y="270" as="targetPoint" />
          </mxGeometry>
        </mxCell>
        <mxCell id="wkIBhuOAM_PfQtG9dyKs-6" value="" style="whiteSpace=wrap;html=1;movable=1;resizable=1;rotatable=1;deletable=1;editable=1;locked=0;connectable=1;" vertex="1" parent="wkIBhuOAM_PfQtG9dyKs-8">
          <mxGeometry y="63.33" width="350" height="126.67" as="geometry" />
        </mxCell>
        <mxCell id="wkIBhuOAM_PfQtG9dyKs-7" value="Services" style="text;html=1;align=center;verticalAlign=middle;resizable=1;points=[];autosize=1;strokeColor=none;fillColor=none;movable=1;rotatable=1;deletable=1;editable=1;locked=0;connectable=1;" vertex="1" parent="wkIBhuOAM_PfQtG9dyKs-8">
          <mxGeometry x="-50" y="20" width="157.5" height="63.333333333333336" as="geometry" />
        </mxCell>
        <mxCell id="wkIBhuOAM_PfQtG9dyKs-29" value="RepositoryServices" style="whiteSpace=wrap;html=1;" vertex="1" parent="wkIBhuOAM_PfQtG9dyKs-8">
          <mxGeometry x="10" y="75" width="120" height="40" as="geometry" />
        </mxCell>
        <mxCell id="wkIBhuOAM_PfQtG9dyKs-30" value="DatabaseClientFactory" style="whiteSpace=wrap;html=1;" vertex="1" parent="wkIBhuOAM_PfQtG9dyKs-8">
          <mxGeometry x="105" y="130" width="140" height="40" as="geometry" />
        </mxCell>
        <mxCell id="wkIBhuOAM_PfQtG9dyKs-31" value="TokenHelper" style="whiteSpace=wrap;html=1;" vertex="1" parent="wkIBhuOAM_PfQtG9dyKs-8">
          <mxGeometry x="200" y="81.66" width="120" height="33.34" as="geometry" />
        </mxCell>
        <mxCell id="wkIBhuOAM_PfQtG9dyKs-9" value="" style="group" vertex="1" connectable="0" parent="1">
          <mxGeometry x="334" y="10" width="160" height="90" as="geometry" />
        </mxCell>
        <mxCell id="wkIBhuOAM_PfQtG9dyKs-1" value="" style="rounded=0;whiteSpace=wrap;html=1;movable=1;resizable=1;rotatable=1;deletable=1;editable=1;locked=0;connectable=1;" vertex="1" parent="wkIBhuOAM_PfQtG9dyKs-9">
          <mxGeometry y="30" width="160" height="60" as="geometry" />
        </mxCell>
        <mxCell id="wkIBhuOAM_PfQtG9dyKs-5" value="Controllers" style="text;html=1;align=center;verticalAlign=middle;resizable=0;points=[];autosize=1;strokeColor=none;fillColor=none;" vertex="1" parent="wkIBhuOAM_PfQtG9dyKs-9">
          <mxGeometry width="80" height="30" as="geometry" />
        </mxCell>
        <mxCell id="wkIBhuOAM_PfQtG9dyKs-26" value="Users" style="whiteSpace=wrap;html=1;" vertex="1" parent="wkIBhuOAM_PfQtG9dyKs-9">
          <mxGeometry x="10" y="45" width="70" height="30" as="geometry" />
        </mxCell>
        <mxCell id="wkIBhuOAM_PfQtG9dyKs-27" value="Blob" style="whiteSpace=wrap;html=1;" vertex="1" parent="wkIBhuOAM_PfQtG9dyKs-9">
          <mxGeometry x="90" y="45" width="60" height="30" as="geometry" />
        </mxCell>
        <mxCell id="wkIBhuOAM_PfQtG9dyKs-12" value="" style="group" vertex="1" connectable="0" parent="1">
          <mxGeometry x="80" y="410" width="120" height="90" as="geometry" />
        </mxCell>
        <mxCell id="wkIBhuOAM_PfQtG9dyKs-10" value="" style="whiteSpace=wrap;html=1;" vertex="1" parent="wkIBhuOAM_PfQtG9dyKs-12">
          <mxGeometry y="30" width="120" height="60" as="geometry" />
        </mxCell>
        <mxCell id="wkIBhuOAM_PfQtG9dyKs-11" value="Models" style="text;html=1;align=center;verticalAlign=middle;resizable=0;points=[];autosize=1;strokeColor=none;fillColor=none;" vertex="1" parent="wkIBhuOAM_PfQtG9dyKs-12">
          <mxGeometry width="60" height="30" as="geometry" />
        </mxCell>
        <mxCell id="wkIBhuOAM_PfQtG9dyKs-25" value="Entities" style="whiteSpace=wrap;html=1;" vertex="1" parent="wkIBhuOAM_PfQtG9dyKs-12">
          <mxGeometry x="20" y="40" width="60" height="40" as="geometry" />
        </mxCell>
        <mxCell id="wkIBhuOAM_PfQtG9dyKs-15" value="" style="group" vertex="1" connectable="0" parent="1">
          <mxGeometry x="414" y="420" width="230" height="80" as="geometry" />
        </mxCell>
        <mxCell id="wkIBhuOAM_PfQtG9dyKs-13" value="" style="whiteSpace=wrap;html=1;" vertex="1" parent="wkIBhuOAM_PfQtG9dyKs-15">
          <mxGeometry y="26.67" width="230" height="53.33" as="geometry" />
        </mxCell>
        <mxCell id="wkIBhuOAM_PfQtG9dyKs-14" value="Settings" style="text;html=1;align=center;verticalAlign=middle;resizable=0;points=[];autosize=1;strokeColor=none;fillColor=none;" vertex="1" parent="wkIBhuOAM_PfQtG9dyKs-15">
          <mxGeometry width="70" height="30" as="geometry" />
        </mxCell>
        <mxCell id="wkIBhuOAM_PfQtG9dyKs-22" value="IdentityData" style="whiteSpace=wrap;html=1;" vertex="1" parent="wkIBhuOAM_PfQtG9dyKs-15">
          <mxGeometry x="10" y="33.329999999999984" width="80" height="40" as="geometry" />
        </mxCell>
        <mxCell id="wkIBhuOAM_PfQtG9dyKs-24" value="Roles" style="whiteSpace=wrap;html=1;" vertex="1" parent="wkIBhuOAM_PfQtG9dyKs-15">
          <mxGeometry x="130" y="35" width="70" height="38.33" as="geometry" />
        </mxCell>
        <mxCell id="wkIBhuOAM_PfQtG9dyKs-18" value="" style="group" vertex="1" connectable="0" parent="1">
          <mxGeometry x="580" y="220" width="290" height="150" as="geometry" />
        </mxCell>
        <mxCell id="wkIBhuOAM_PfQtG9dyKs-16" value="" style="whiteSpace=wrap;html=1;" vertex="1" parent="wkIBhuOAM_PfQtG9dyKs-18">
          <mxGeometry y="50" width="290" height="100" as="geometry" />
        </mxCell>
        <mxCell id="wkIBhuOAM_PfQtG9dyKs-17" value="Extensions" style="text;html=1;align=center;verticalAlign=middle;resizable=0;points=[];autosize=1;strokeColor=none;fillColor=none;" vertex="1" parent="wkIBhuOAM_PfQtG9dyKs-18">
          <mxGeometry y="26.31315789473684" width="80" height="30" as="geometry" />
        </mxCell>
        <mxCell id="wkIBhuOAM_PfQtG9dyKs-19" value="Auth" style="whiteSpace=wrap;html=1;" vertex="1" parent="wkIBhuOAM_PfQtG9dyKs-18">
          <mxGeometry x="20" y="88.16052631578947" width="100" height="23.684210526315788" as="geometry" />
        </mxCell>
        <mxCell id="wkIBhuOAM_PfQtG9dyKs-20" value="Swagger" style="whiteSpace=wrap;html=1;" vertex="1" parent="wkIBhuOAM_PfQtG9dyKs-18">
          <mxGeometry x="150" y="88.16052631578947" width="110" height="23.684210526315788" as="geometry" />
        </mxCell>
        <mxCell id="wkIBhuOAM_PfQtG9dyKs-34" value="" style="endArrow=classic;html=1;rounded=0;jumpStyle=none;curved=0;entryX=0.5;entryY=0;entryDx=0;entryDy=0;dashed=1;exitX=0.25;exitY=1;exitDx=0;exitDy=0;" edge="1" parent="1" source="wkIBhuOAM_PfQtG9dyKs-1" target="wkIBhuOAM_PfQtG9dyKs-6">
          <mxGeometry width="50" height="50" relative="1" as="geometry">
            <mxPoint x="370" y="170" as="sourcePoint" />
            <mxPoint x="384" y="90" as="targetPoint" />
            <Array as="points">
              <mxPoint x="375" y="240" />
            </Array>
          </mxGeometry>
        </mxCell>
        <mxCell id="wkIBhuOAM_PfQtG9dyKs-40" style="edgeStyle=orthogonalEdgeStyle;rounded=0;orthogonalLoop=1;jettySize=auto;html=1;entryX=0.858;entryY=-0.05;entryDx=0;entryDy=0;entryPerimeter=0;dashed=1;" edge="1" parent="1" source="wkIBhuOAM_PfQtG9dyKs-6" target="wkIBhuOAM_PfQtG9dyKs-10">
          <mxGeometry relative="1" as="geometry" />
        </mxCell>
        <mxCell id="wkIBhuOAM_PfQtG9dyKs-39" style="edgeStyle=orthogonalEdgeStyle;rounded=0;orthogonalLoop=1;jettySize=auto;html=1;dashed=1;" edge="1" parent="1">
          <mxGeometry relative="1" as="geometry">
            <mxPoint x="150" y="440" as="targetPoint" />
            <mxPoint x="330" y="70" as="sourcePoint" />
          </mxGeometry>
        </mxCell>
        <mxCell id="wkIBhuOAM_PfQtG9dyKs-46" style="edgeStyle=orthogonalEdgeStyle;rounded=0;orthogonalLoop=1;jettySize=auto;html=1;exitX=0.25;exitY=1;exitDx=0;exitDy=0;entryX=0.683;entryY=0.025;entryDx=0;entryDy=0;entryPerimeter=0;dashed=1;" edge="1" parent="1" source="wkIBhuOAM_PfQtG9dyKs-16" target="wkIBhuOAM_PfQtG9dyKs-13">
          <mxGeometry relative="1" as="geometry" />
        </mxCell>
      </root>
    </mxGraphModel>
  </diagram>
</mxfile>
